<svg id="GitVersionIcon" xmlns="http://www.w3.org/2000/svg" viewBox="0 0 332 332"><defs><style>.cls-1{fill:#fff;}.cls-2{fill:#682a7b;}</style></defs><title>Icon</title><path id="CrownWhiteBG" class="cls-1" d="M134.74,249.83c-16.16,3.82-55.08-20.08-55.08-20.08l-31.5-50.37,12.25-56.63,25.88-20.87,9.25-49.75,49.37-32.37L196.41,36l14.75,19.88,54,13.13,29.13,43.38L300,161.62,267.91,215,222,228.87s-4.54,16.19-19.5,13.46C186.58,239.42,152.53,245.62,134.74,249.83Z"/><g id="Crown"><path class="cls-2" d="M116,247.64c-42.73,0-77.49-36.17-77.49-80.63,0-28.57,14.5-54.89,38-69.39-.14-2-.21-3.91-.21-5.85C76.35,47.51,111,11.5,153.5,11.5c25.27,0,48.69,12.73,63.17,34.19l1.74,0c51.22,0,92.89,43.4,92.89,96.74s-41.67,96.74-92.89,96.74a89.51,89.51,0,0,1-15.71-1.38,10.61,10.61,0,1,1,3.75-20.89,68.58,68.58,0,0,0,12,1c39.52,0,71.66-33.88,71.66-75.52s-32.15-75.52-71.66-75.52c-2,0-4.14.11-6.45.32l-4,.37-.42,0a4.5,4.5,0,0,1-3.93-2.31l-1.94-3.48c-10-17.95-28.5-29.1-48.2-29.1-30.84,0-55.92,26.49-55.92,59a62.73,62.73,0,0,0,.81,10l.73,4.49A4.5,4.5,0,0,1,96.64,111l-4.09,2c-19.93,9.67-32.81,30.86-32.81,54,0,32.75,25.24,59.4,56.27,59.4a53.52,53.52,0,0,0,16.63-2.64A10.61,10.61,0,0,1,139.24,244,75,75,0,0,1,116,247.64Z"/><path class="cls-1" d="M153.5,16c24.47,0,47.42,13,60.79,34.27,1.4-.07,2.77-.11,4.13-.11,48.74,0,88.39,41.38,88.39,92.24s-39.65,92.24-88.39,92.24a85,85,0,0,1-14.92-1.31,6.11,6.11,0,1,1,2.15-12,73.11,73.11,0,0,0,12.77,1.12c42,0,76.16-35.9,76.16-80s-34.17-80-76.16-80c-2.2,0-4.44.11-6.87.34l-4,.38-1.94-3.48c-10.82-19.37-30.8-31.4-52.13-31.4-33.32,0-60.42,28.5-60.42,63.55A67.25,67.25,0,0,0,94,102.5l.73,4.49-4.09,2c-21.47,10.42-35.34,33.2-35.34,58,0,35.23,27.26,63.9,60.76,63.9a58,58,0,0,0,18-2.86,6.11,6.11,0,0,1,3.8,11.62A70.44,70.44,0,0,1,116,243.14C75.77,243.14,43,209,43,167c0-27.94,14.88-53.74,38.27-67a78.51,78.51,0,0,1-.44-8.28C80.85,50,113.45,16,153.5,16m0-9c-45,0-81.65,38-81.65,84.77q0,1.73.07,3.48C48.41,110.83,34,137.81,34,167c0,46.94,36.78,85.13,82,85.13a79.43,79.43,0,0,0,24.61-3.91,15.11,15.11,0,1,0-9.4-28.73A49,49,0,0,1,116,221.92c-28.54,0-51.76-24.63-51.76-54.9,0-21.41,11.88-41,30.27-49.94l4.09-2a9,9,0,0,0,5-9.54l-.73-4.49a58.2,58.2,0,0,1-.76-9.29c0-30.08,23.07-54.55,51.42-54.55,18.07,0,35,10.27,44.27,26.79l1.94,3.48a9,9,0,0,0,7.85,4.61q.42,0,.85,0l4-.37c2.16-.2,4.13-.3,6-.3,37,0,67.16,31.86,67.16,71s-30.13,71-67.16,71a64.1,64.1,0,0,1-11.2-1,15.11,15.11,0,1,0-5.3,29.76,94,94,0,0,0,16.49,1.45c53.7,0,97.39-45.42,97.39-101.24,0-55.62-43.37-100.91-96.8-101.24a83.2,83.2,0,0,0-26.51-23.83A79.46,79.46,0,0,0,153.5,7Z"/></g><g id="Trunk"><path class="cls-2" d="M182.19,320.5A101.58,101.58,0,0,1,167,319.38c-7-1.1-10.12-2.65-11.22-5.51a5.24,5.24,0,0,1,1-5.41c.82-2.19,3.16-13.68,4.69-73.64v-.58c.81-24.68-6.73-37.59-9.06-41l-.32-.44c-17.28-22.59-35.13-35.57-48.93-35.57a22.27,22.27,0,0,0-2.78.17,11,11,0,0,1-1.36.08,10.84,10.84,0,0,1-1.36-21.6,44.48,44.48,0,0,1,5.52-.34c10.5,0,21.4,3.7,32.45,11,5-8,13.12-13.59,23.28-15.93A9.91,9.91,0,1,1,163.44,150c-7.27,1.67-10.62,5.6-12.12,9.25a164.73,164.73,0,0,1,13.06,14.12c2.45,2.64,8.55,5.31,15.5,5.31,4.08,0,9.89-1,14.42-5.47.43-.43.81-.78,1.17-1.09a84.75,84.75,0,0,1,8.44-6.86c-8.55-30.05-24.15-42.67-24.31-42.8a10.84,10.84,0,0,1,13.2-17.2c.84.64,19.85,15.45,30.76,49.91a71.86,71.86,0,0,1,22.75-3.64c1.68,0,3.4.06,5.11.17a10.84,10.84,0,0,1-.71,21.66h0l-.7,0c-1.24-.08-2.48-.12-3.7-.12a50.51,50.51,0,0,0-24.95,6.44l-.1.06h0a62.35,62.35,0,0,0-14.92,12c-.51.54-1,1-1.41,1.56C194,206,193.47,229,193.44,231.79c0,0,0,.36,0,.42.67,64.78,4.32,74.66,5.15,76.06a6.07,6.07,0,0,1,1.5,6.75C198.95,317.73,195.93,320.5,182.19,320.5Z"/><path class="cls-1" d="M186.24,107.52a6.3,6.3,0,0,1,3.84,1.3c.88.67,20.38,15.91,30.56,52.22a66.75,66.75,0,0,1,25.69-5q2.36,0,4.82.16a6.34,6.34,0,0,1-.42,12.67h-.41q-2-.13-4-.13a54.79,54.79,0,0,0-27.2,7l-.05,0a66.58,66.58,0,0,0-16,12.81c-.52.55-1,1.11-1.51,1.67-11.89,13.88-12.58,37.64-12.61,41.52l-.05-7.44v0q0,3.63.06,7.53c0,.17,0,.31,0,.39.33,31.51,1.64,74.27,6.3,79.07,3.31,3.41-4.15,4.72-13.05,4.72-11.22,0-24.73-2.09-21.83-4.72,3.19-2.88,4.85-44.45,5.65-76.35,0-.2,0-.35,0-.56.86-26-7.24-39.89-9.85-43.66l-.42-.59c-13.16-17.2-33.26-37.35-52.53-37.35a26.67,26.67,0,0,0-3.35.21,6.43,6.43,0,0,1-.79,0,6.34,6.34,0,0,1-.79-12.64,39.71,39.71,0,0,1,5-.31c12.14,0,23.74,5.47,34,13.13,3.16-7.37,9.86-15.22,22.69-18.17a5.41,5.41,0,1,1,2.44,10.55c-11.67,2.68-15.18,10.42-16.25,15A157.38,157.38,0,0,1,161,176.35l0,0c3.45,3.75,10.95,6.79,18.84,6.79,6.22,0,12.68-1.89,17.6-6.79.38-.37.69-.67,1-.91a79.43,79.43,0,0,1,10.63-8.31C200.27,133,182.57,119,182.39,118.9a6.34,6.34,0,0,1,3.85-11.38m2.7,124.26v0m-2.7-133.26h0A15.34,15.34,0,0,0,176.84,126c.48.4,13.76,11.58,21.87,37.51q-3.22,2.47-6.22,5.25c-.43.37-.87.78-1.36,1.27-3.44,3.43-8,4.15-11.24,4.15-5.8,0-10.6-2.23-12.13-3.79-3.52-4.26-7.14-8.24-10.79-11.91,1.63-2,4.11-3.31,7.49-4.09A14.41,14.41,0,1,0,158,126.28a41.4,41.4,0,0,0-23.46,14.24c-10.56-6.27-21-9.44-31.24-9.44a48.92,48.92,0,0,0-6.08.38A15.34,15.34,0,0,0,101,161.91a17.83,17.83,0,0,1,2.24-.14c12.38,0,28.9,12.3,45.32,33.75l.22.3c1.52,2.2,9.05,14.35,8.27,38.25,0,.17,0,.3,0,.42v.16c-1.42,55.73-3.55,68.83-4.28,71.75a9.73,9.73,0,0,0-1.13,9.08c2.27,5.9,8.79,7.4,14.72,8.34A106.35,106.35,0,0,0,182.19,325c9.65,0,19-1,22.05-8.23a10.45,10.45,0,0,0-1.79-10.92c-.91-2.53-3.9-15.23-4.51-73.6,0-.09,0-.18,0-.26v-.2c.08-8.84,2.36-26.21,10.42-35.64.46-.53.85-1,1.23-1.37l0,0a57.89,57.89,0,0,1,13.84-11.1h0l.15-.09a46.07,46.07,0,0,1,22.7-5.83c1.12,0,2.27,0,3.41.11.32,0,.66,0,1,0A15.37,15.37,0,0,0,266,163.48a15.32,15.32,0,0,0-14.31-16.29c-1.8-.12-3.61-.18-5.4-.18a76.77,76.77,0,0,0-19.86,2.58c-11.23-32.18-28.81-46.3-30.93-47.93a15.2,15.2,0,0,0-9.29-3.14Z"/></g></svg>
