<svg xmlns="http://www.w3.org/2000/svg" xmlns:xlink="http://www.w3.org/1999/xlink" version="1.1" id="Layer_1" x="0px" y="0px" width="100px" height="100px" viewBox="0 0 100 100" enable-background="new 0 0 100 100" xml:space="preserve">
<g>
	<g>
		<path fill="#000000" d="M75.411,46.723c-3.874-0.253-7.253,0.421-10.169,1.624c-3.391-12.103-9.891-17.183-10.185-17.407    c-0.926-0.707-2.251-0.53-2.963,0.398c-0.707,0.928-0.529,2.255,0.399,2.963c0.061,0.048,5.96,4.689,8.903,16.084    c-1.302,0.849-2.485,1.789-3.543,2.771c-0.097,0.082-0.202,0.18-0.327,0.305c-3.718,3.706-10.089,2.238-12.146,0    c-0.005-0.005-0.008-0.007-0.012-0.012c-1.441-1.748-3.108-3.567-4.944-5.252c0.354-1.523,1.524-4.101,5.415-4.996    c0.971-0.225,1.577-1.193,1.354-2.164c-0.225-0.972-1.191-1.579-2.166-1.353c-4.276,0.984-6.511,3.6-7.563,6.056    c-3.902-2.9-8.359-4.859-13.003-4.275c-1.159,0.146-1.978,1.204-1.832,2.363c0.144,1.159,1.202,1.977,2.361,1.833    c6.751-0.853,13.984,6.317,18.624,12.382c0.041,0.056,0.081,0.11,0.141,0.197c0.869,1.256,3.569,5.892,3.284,14.553    c-0.002,0.067-0.002,0.119-0.004,0.185c-0.27,10.632-0.823,24.49-1.885,25.449c-1.737,1.572,14.123,2.566,11.627,0    c-1.554-1.599-1.991-15.855-2.1-26.357c-0.003-0.635,0.04-9.126,4.204-13.985c0.163-0.187,0.327-0.373,0.502-0.558    c1.66-1.78,3.441-3.205,5.336-4.27c0.006-0.003,0.012-0.008,0.018-0.011c3.163-1.773,6.64-2.545,10.398-2.304    c1.15,0.075,2.171-0.808,2.245-1.973C77.459,47.805,76.577,46.798,75.411,46.723z M54.656,69.431    c0.001,0.003,0.003,0.012,0.003,0.015l0.019,2.571C54.669,71.122,54.661,70.261,54.656,69.431z"/>
		<path fill="#000000" d="M30.368,75.715c-13.416,0-24.331-11.385-24.331-25.377c0-9.314,4.961-17.913,12.758-22.32    c-0.098-0.922-0.147-1.847-0.147-2.761C18.648,11.33,29.512,0,42.864,0c8.157,0,15.808,4.345,20.262,11.425    c0.466-0.023,0.923-0.036,1.375-0.036c16.246,0,29.462,13.793,29.462,30.748S80.747,72.884,64.501,72.884    c-1.671,0-3.345-0.147-4.973-0.438c-1.109-0.197-1.847-1.257-1.648-2.363c0.198-1.108,1.254-1.851,2.363-1.648    c1.394,0.248,2.826,0.374,4.258,0.374c13.998,0,25.388-11.966,25.388-26.672c0-14.707-11.39-26.672-25.388-26.672    c-0.732,0-1.481,0.038-2.29,0.114l-1.323,0.125l-0.648-1.16C56.632,8.087,49.973,4.076,42.864,4.076    c-11.106,0-20.141,9.501-20.141,21.182c0,1.182,0.098,2.386,0.291,3.576l0.243,1.498l-1.364,0.662    c-7.156,3.473-11.78,11.066-11.78,19.345c0,11.745,9.086,21.301,20.255,21.301c2.049,0,4.071-0.321,6.01-0.954    c1.066-0.352,2.22,0.232,2.57,1.304c0.35,1.069-0.234,2.22-1.304,2.57C35.296,75.324,32.848,75.715,30.368,75.715z"/>
	</g>
	<path fill="#000000" stroke="#231F20" stroke-width="4" stroke-miterlimit="10" d="M45.794,73.098"/>
</g>
</svg>