<svg enable-background="new 0 0 40.4 40.1" viewBox="0 0 40.4 40.1" xmlns="http://www.w3.org/2000/svg"><g fill="#fff"><path d="m4 12v24h6v-24zm0-4h6c2.2 0 4 1.8 4 4v24c0 2.2-1.8 4-4 4h-6c-2.2 0-4-1.8-4-4v-24c0-2.2 1.8-4 4-4z"/><path d="m27.9 12.2 2.5 23.9 6-.6-2.5-23.9zm-.4-4 6-.6c2.2-.2 4.2 1.4 4.4 3.6l2.5 23.8c.2 2.2-1.4 4.2-3.6 4.4l-6 .6c-2.2.2-4.2-1.4-4.4-3.6l-2.5-23.9c-.2-2.1 1.4-4 3.6-4.3z"/><path d="m14 4v32h6v-32zm0-4h6c2.2 0 4 1.8 4 4v32c0 2.2-1.8 4-4 4h-6c-2.2 0-4-1.8-4-4v-32c0-2.2 1.8-4 4-4z"/></g></svg>